<?xml version="1.0" encoding="UTF-8"?>
<svg width="14px" height="14px" viewBox="0 0 14 14" version="1.1" xmlns="http://www.w3.org/2000/svg" xmlns:xlink="http://www.w3.org/1999/xlink">
    <title>合并形状备份</title>
    <g id="1.0" stroke="none" stroke-width="1" fill="none" fill-rule="evenodd">
        <g id="图层绘制" transform="translate(-1410.000000, -136.000000)" fill="#FFFFFF" fill-rule="nonzero">
            <g id="编组-5备份-3" transform="translate(1394.000000, 127.000000)">
                <g id="编组-4" transform="translate(16.000000, 6.000000)">
                    <path d="M6.32838795,6.56546878 C6.32838795,6.07064423 6.7216075,5.72480052 7.19354372,5.81423237 C7.53741438,5.87582114 7.77267762,6.17284098 7.77759196,6.53703161 C7.77900178,6.77952083 7.77970635,6.97304982 7.78097425,7.4080951 C7.78224078,7.84267424 7.78294422,8.03589139 7.7843545,8.27916218 C7.7843545,8.40335034 7.78527937,8.50309881 7.78806011,8.72803008 C7.78961384,8.8536979 7.78961384,8.8536979 7.79085384,8.97997964 C7.79154477,9.06081862 7.79187325,9.13422555 7.79179614,9.20316999 C8.67815722,9.20025144 9.56724208,9.20040313 10.4520777,9.2036237 C10.8772292,9.2036237 11.2020083,9.50121199 11.2070212,9.90874846 C11.2176144,10.3374631 10.8933381,10.6528318 10.4558793,10.6528318 L7.94848866,10.6528318 C7.91364398,10.6530761 7.91364398,10.6530761 7.87548516,10.6538808 C7.84490209,10.6545301 7.81899484,10.6549484 7.79610123,10.6550462 C7.7988398,10.9022031 7.79910625,11.1436554 7.79829346,11.6038229 C7.79797682,11.7831741 7.79797682,11.7831741 7.79787143,11.9625258 L7.79787143,13.3349167 C7.79787143,13.763746 7.49672433,14.0950078 7.08293376,14.1001104 C6.66334413,14.1051094 6.34866334,13.7691458 6.34866491,13.3357877 C6.34596888,12.5886504 6.34495438,12.2622111 6.34429946,11.8500968 C6.34361056,11.4165937 6.34375836,11.0242975 6.3448863,10.6498635 C5.46097593,10.6528262 4.57709997,10.6526888 3.69403466,10.6494526 C3.17526903,10.6494526 2.81357771,10.1775176 2.97505866,9.69307472 C3.07665757,9.38827798 3.35427642,9.19686524 3.6876986,9.19686524 C3.87899852,9.19686524 4.0320502,9.1967597 4.37659597,9.19644294 C5.34910509,9.19554885 5.81395976,9.19596244 6.34417802,9.19952995 C6.33652276,8.48328546 6.33320831,7.86799685 6.32838795,6.56546878 Z M13.9981758,10.0497935 C14.0022039,10.1302716 13.9989771,10.4218196 13.9941653,10.4517851 C13.9728143,10.7578171 13.9337023,11.0551334 13.8758825,11.3459297 C13.2666116,14.494267 10.5573826,16.8421113 7.34770436,16.9959088 C7.24774291,16.9976939 7.14269183,16.9987436 7.02364902,16.9992714 C6.93389395,16.9996436 6.86198031,16.9996436 6.69094072,16.9996436 C5.51924257,16.9469189 4.41867671,16.6142152 3.40134752,16.0090076 C3.0392912,15.7933666 2.91629901,15.3545212 3.1290709,15.0049768 C3.34105742,14.651666 3.78114795,14.5473936 4.13887192,14.7630114 C4.82716303,15.1733388 5.5526277,15.4261584 6.31374743,15.5149559 C7.81935294,15.688443 9.17251545,15.3287159 10.3533469,14.4302572 C11.5394242,13.5268887 12.2545677,12.3341711 12.4881275,10.8668326 C12.8525038,8.57294656 11.7695782,6.31058574 9.71244647,5.15721815 C8.75299003,4.61915863 7.74481218,4.38213131 6.70656995,4.46421102 C4.49238453,4.63278736 2.90153012,5.72994581 1.93835123,7.74486609 C1.55642104,8.54003222 1.40130134,9.41177265 1.46155486,10.3524032 C1.52010663,11.2928909 1.79987574,12.161989 2.30066056,12.9529168 C2.51351577,13.2916292 2.48872129,13.6514056 2.2199701,13.910201 C1.88559628,14.2344423 1.35884081,14.1659213 1.10615454,13.7705057 C0.678723345,13.1131956 0.376440042,12.4171311 0.208225253,11.6854824 C-0.305271315,9.45915821 0.130527472,7.4314833 1.52051349,5.65630482 C2.62907105,4.23903503 4.09122229,3.37535803 5.85656295,3.09974184 C8.25969521,2.72114539 10.3516507,3.42232257 12.0707869,5.1695264 C13.077377,6.19416038 13.6927323,7.4572811 13.9245784,8.93039891 C13.9663099,9.19216943 13.9913659,9.43426883 13.9985523,9.67465857 C13.9981292,9.74277685 13.9981292,9.74277685 13.9969156,9.80839204 C13.9963209,9.84069545 13.9963209,9.84069545 13.9958365,9.87229478 C13.9948169,9.94618543 13.9953721,9.99965691 13.9981758,10.0497935 Z" id="合并形状备份"></path>
                </g>
            </g>
        </g>
    </g>
</svg>