<?xml version="1.0" encoding="UTF-8"?>
<svg width="18px" height="18px" viewBox="0 0 18 18" version="1.1" xmlns="http://www.w3.org/2000/svg" xmlns:xlink="http://www.w3.org/1999/xlink">
    <title>数据</title>
    <g id="1.0" stroke="none" stroke-width="1" fill="none" fill-rule="evenodd">
        <g id="图层绘制" transform="translate(-1769.000000, -296.000000)">
            <g id="操作备份" transform="translate(1714.000000, 296.000000)">
                <g id="数据" transform="translate(55.000000, 0.000000)">
                    <rect id="矩形备份-10" fill="#D8D8D8" opacity="0" x="0" y="0" width="18" height="18"></rect>
                    <path d="M14,2 C15.1045695,2 16,2.8954305 16,4 L16,4 L16,14 C16,15.1045695 15.1045695,16 14,16 L14,16 L4,16 C2.8954305,16 2,15.1045695 2,14 L2,14 L2,4 C2,2.8954305 2.8954305,2 4,2 L4,2 Z M14.6666667,12 L3.33333333,12 L3.33333333,14 C3.33333333,14.3514539 3.6052926,14.6393884 3.95024589,14.6648381 L3.95024589,14.6648381 L4,14.6666667 L14,14.6666667 C14.3681898,14.6666667 14.6666667,14.3681898 14.6666667,14 L14.6666667,14 L14.6666667,12 Z M6.33333333,12.6666667 C6.70152317,12.6666667 7,12.9651435 7,13.3333333 C7,13.6847873 6.72804074,13.9727217 6.38308745,13.9981714 L6.33333333,14 L5,14 C4.63181017,14 4.33333333,13.7015232 4.33333333,13.3333333 C4.33333333,12.9818794 4.6052926,12.693945 4.95024589,12.6684952 L5,12.6666667 L6.33333333,12.6666667 Z M14.666,8 L3.333,8 L3.33333333,10.6666667 L14.6666667,10.6666667 L14.666,8 Z M6.33333333,8.66666667 C6.70152317,8.66666667 7,8.9651435 7,9.33333333 C7,9.68478727 6.72804074,9.97272171 6.38308745,9.99817142 L6.33333333,10 L5,10 C4.63181017,10 4.33333333,9.70152317 4.33333333,9.33333333 C4.33333333,8.9818794 4.6052926,8.69394496 4.95024589,8.66849525 L5,8.66666667 L6.33333333,8.66666667 Z M14,3.33333333 L4,3.33333333 C3.63181017,3.33333333 3.33333333,3.63181017 3.33333333,4 L3.33333333,4 L3.33333333,6.66666667 L14.6666667,6.66666667 L14.6666667,4 C14.6666667,3.64854607 14.3947074,3.36061163 14.0497541,3.33516191 L14.0497541,3.33516191 L14,3.33333333 Z M6.33333333,4.33333333 C6.70152317,4.33333333 7,4.63181017 7,5 C7,5.35145393 6.72804074,5.63938837 6.38308745,5.66483809 L6.33333333,5.66666667 L5,5.66666667 C4.63181017,5.66666667 4.33333333,5.36818983 4.33333333,5 C4.33333333,4.64854607 4.6052926,4.36061163 4.95024589,4.33516191 L5,4.33333333 L6.33333333,4.33333333 Z" id="形状结合" fill="#3876E6" fill-rule="nonzero"></path>
                </g>
            </g>
        </g>
    </g>
</svg>