<?xml version="1.0" encoding="UTF-8"?>
<svg width="14px" height="14px" viewBox="0 0 14 14" version="1.1" xmlns="http://www.w3.org/2000/svg" xmlns:xlink="http://www.w3.org/1999/xlink">
    <title>形状结合</title>
    <g id="1.0" stroke="none" stroke-width="1" fill="none" fill-rule="evenodd">
        <g id="图层绘制" transform="translate(-1771.000000, -136.000000)" fill="#FFFFFF" fill-rule="nonzero">
            <g id="编组-5" transform="translate(1754.000000, 127.000000)">
                <path d="M27,14.9998767 C28.9139267,14.9998767 30.24726,16.3910429 31,19.1733755 L30.9583657,19.3112274 C30.1985832,21.7697977 28.879128,22.9990828 27,22.9990828 C25.120872,22.9990828 23.8014168,21.7697977 23.0416343,19.3112274 L23,19.1733755 C23.75274,16.3910429 25.0860733,14.9998767 27,14.9998767 Z M30.9983453,9.61931053 L31,9.66707258 L31,13.3333754 C31,13.7015287 30.7015232,13.9999759 30.3333333,13.9999759 C29.9818794,13.9999759 29.693945,13.7280436 29.6684952,13.3831246 L29.6666667,13.3333754 L29.6666667,10.576649 L26.1372515,11.6910909 C26.020684,11.7278986 25.8966314,11.7318371 25.7786158,11.7030723 L25.7201738,11.6859655 L21.937,10.388001 L18.3333333,12.1898222 L18.333,14.154 L21.565929,12.6962726 C21.6214173,12.6712365 21.682423,12.6619901 21.7423124,12.6690968 L21.7869166,12.6775018 L25.2891757,13.588095 C25.4673457,13.6344195 25.5742239,13.816394 25.5278948,13.9945463 C25.4848749,14.1599735 25.32488,14.2639357 25.1595902,14.2408534 L25.1214032,14.2332417 L21.733,13.3520402 L18.333,14.886 L18.333,17.487 L21.565929,16.0292751 C21.7337312,15.9535636 21.9311441,16.0282044 22.0068631,16.1959899 C22.0771736,16.3517908 22.0178307,16.5331208 21.8746426,16.618849 L21.8401317,16.6368803 L18.333,18.219 L18.3333333,21.2229257 L20.8041599,19.9106706 C21.1138174,19.7461495 21.4946687,19.850345 21.6794784,20.141482 L21.7056961,20.1865444 C21.8702335,20.4961712 21.7660277,20.8769846 21.4748618,21.061776 L21.4297949,21.0879911 L17.9794842,22.9211425 C17.5502493,23.1491951 17.035595,22.8560936 17.0017616,22.3821428 L17,22.3324823 L17,11.7779742 C17,11.5435195 17.123015,11.3277501 17.3214215,11.2077146 L17.3685243,11.1817486 L21.5907465,9.07084696 C21.7329203,8.99976713 21.8951815,8.98210249 22.0482829,9.01980338 L22.1052094,9.03654029 L25.9453333,10.3533378 L30.1325761,9.03141484 C30.5469116,8.90058287 30.968743,9.19418901 30.9983453,9.61931053 Z M27,17.3329785 C26.0795254,17.3329785 25.3333333,18.0790965 25.3333333,18.9994797 C25.3333333,19.919863 26.0795254,20.665981 27,20.665981 C27.9204746,20.665981 28.6666667,19.919863 28.6666667,18.9994797 C28.6666667,18.0790965 27.9204746,17.3329785 27,17.3329785 Z" id="形状结合"></path>
            </g>
        </g>
    </g>
</svg>