<?xml version="1.0" encoding="UTF-8"?>
<svg width="15px" height="12px" viewBox="0 0 15 12" version="1.1" xmlns="http://www.w3.org/2000/svg" xmlns:xlink="http://www.w3.org/1999/xlink">
    <title>形状结合</title>
    <g id="1.0" stroke="none" stroke-width="1" fill="none" fill-rule="evenodd">
        <g id="在线图层绘制" transform="translate(-1037.000000, -134.000000)" fill="#FFFFFF" fill-rule="nonzero">
            <g id="编组-22" transform="translate(1008.000000, 123.000000)">
                <path d="M33.4689408,16.0065345 C33.7170455,16.2546392 33.7229201,16.6552923 33.4905175,16.9236268 L33.4556966,16.9610294 C33.2006098,17.2161161 32.7996394,17.2331138 32.5376522,17.0080697 L32.5012017,16.9742736 L30.148075,14.6211468 C29.8999703,14.3730421 29.8940956,13.9723891 30.1264983,13.7040546 L30.1613192,13.666652 L32.5806669,11.2473043 C32.8479006,10.9800705 33.2752425,10.9741409 33.5351617,11.2340601 C33.7832664,11.4821648 33.7891411,11.8828179 33.5567384,12.1511524 L33.5219175,12.188555 L32.29,13.419 L39.3410468,13.419872 C41.9141156,13.419872 44,15.5644567 44,18.209936 C44,20.8196656 41.9701099,22.9419468 39.4450895,22.9988292 L39.3410468,23 L33.3509641,23 C32.9833828,23 32.6853993,22.6936308 32.6853993,22.3157051 C32.6853993,21.954958 32.9569091,21.6594099 33.3012922,21.6332872 L33.3509641,21.6314103 L39.3410468,21.6314103 C41.1789531,21.6314103 42.6688705,20.0995641 42.6688705,18.209936 C42.6688705,16.3523355 41.2290307,14.8404915 39.4341942,14.7897761 L39.3410468,14.7884617 L32.251,14.788 L33.4689408,16.0065345 Z" id="形状结合"></path>
            </g>
        </g>
    </g>
</svg>