<?xml version="1.0" encoding="UTF-8"?>
<svg width="16px" height="16px" viewBox="0 0 16 16" version="1.1" xmlns="http://www.w3.org/2000/svg" xmlns:xlink="http://www.w3.org/1999/xlink">
    <title>编组 21</title>
    <g id="1.0" stroke="none" stroke-width="1" fill="none" fill-rule="evenodd" opacity="0.6">
        <g id="地图管理" transform="translate(-264.000000, -12.000000)">
            <g id="编组-12" transform="translate(264.000000, 9.000000)">
                <g id="编组-21" transform="translate(0.000000, 3.000000)">
                    <rect id="矩形" fill="#D8D8D8" opacity="0" x="0" y="0" width="16" height="16"></rect>
                    <path d="M8,0 C9.22139343,0 10.2115284,1.02334914 10.2115284,2.28550186 L10.2115284,2.28550186 L10.2111598,2.34857143 L10.334694,2.40126456 C10.7569861,2.58959463 11.1560556,2.82842952 11.5240764,3.11228475 L11.5240764,3.11228475 L11.628381,3.19504762 L11.6823353,3.16337051 C12.7149083,2.54721609 14.0284026,2.88949312 14.6584705,3.92313751 L14.6584705,3.92313751 L14.7033393,4 C15.314036,5.09324028 14.9516215,6.49116121 13.8939414,7.12229746 L13.8939414,7.12229746 L13.8406466,7.15390476 L13.845105,7.18532725 C13.8711615,7.38670671 13.8875543,7.59004824 13.8941222,7.79479941 L13.8941222,7.79479941 L13.8974092,8 C13.8974092,8.27417273 13.879847,8.54616681 13.845105,8.81467275 L13.845105,8.81467275 L13.8406466,8.84571429 L13.8938637,8.87765622 C14.9264368,9.49381063 15.296384,10.8406267 14.7453093,11.9214077 L14.7453093,11.9214077 L14.7033393,12 C14.0926426,13.0932403 12.740093,13.4678121 11.6825657,12.8367669 L11.6825657,12.8367669 L11.6287496,12.8045714 L11.5240764,12.8877152 C11.1560556,13.1715705 10.7569861,13.4104054 10.334694,13.5987354 L10.334694,13.5987354 L10.2115284,13.6510476 L10.2115284,13.7142857 C10.2115284,14.9479607 9.26588813,15.9533607 8.08290956,15.9984234 L8.08290956,15.9984234 L8,16 C6.77860657,16 5.78847156,14.9766509 5.78847159,13.7144981 L5.78847159,13.7144981 L5.78847156,13.6510476 L5.66530599,13.5987354 C5.2430139,13.4104054 4.84394437,13.1715705 4.47592363,12.8877152 L4.47592363,12.8877152 L4.37125042,12.8045714 L4.3176647,12.8366295 C3.28509167,13.4527839 1.97159739,13.1105069 1.34152953,12.0768625 L1.34152953,12.0768625 L1.29666067,12 C0.685963956,10.9067597 1.04837852,9.50883879 2.10605864,8.87770254 L2.10605864,8.87770254 L2.15898481,8.84571429 L2.15489498,8.81467275 C2.12883852,8.61329329 2.11244567,8.40995176 2.10587777,8.20520059 L2.10587777,8.20520059 L2.10259083,8 C2.10259083,7.72582727 2.12015304,7.45383319 2.15489498,7.18532725 L2.15489498,7.18532725 L2.15898481,7.15390476 L2.10613626,7.12234378 C1.07356323,6.50618937 0.703615978,5.15937329 1.25469068,4.07859229 L1.25469068,4.07859229 L1.29666067,4 C1.90735739,2.90675972 3.25990696,2.53218793 4.31743426,3.16323306 L4.31743426,3.16323306 L4.37088183,3.19504762 L4.47592363,3.11228475 C4.84394437,2.82842952 5.2430139,2.58959463 5.66530599,2.40126456 L5.66530599,2.40126456 L5.78847156,2.34857143 L5.78847156,2.28571429 C5.78847156,1.05203926 6.73411187,0.0466393288 7.91709044,0.00157656078 L7.91709044,0.00157656078 Z M8,1.52380952 C7.59286886,1.52380952 7.26282385,1.8649259 7.26282383,2.28592671 L7.26282383,2.28592671 L7.26266147,2.88778898 C7.26257056,3.22478174 7.04829357,3.52168171 6.73578796,3.61781946 C6.07148527,3.82218241 5.46425912,4.18649521 4.9612788,4.67819887 C4.72447848,4.90969022 4.36869644,4.95297383 4.08636047,4.78463941 L4.08636047,4.78463941 L3.58048855,4.48302826 C3.22790264,4.27263407 2.77705278,4.39749133 2.57348721,4.76190476 C2.36992164,5.12631819 2.49072649,5.59229183 2.84339002,5.80273234 L2.84339002,5.80273234 L3.34780567,6.10381052 C3.62990223,6.27218975 3.771622,6.61197357 3.6963862,6.93955861 C3.61730193,7.28390027 3.57694312,7.6389292 3.57694312,8 C3.57694312,8.3610708 3.61730193,8.71609973 3.6963862,9.06044139 C3.771622,9.38802643 3.62990223,9.72781025 3.34780567,9.89618948 L3.34780567,9.89618948 L2.84331241,10.197314 C2.49072649,10.4077082 2.36992164,10.8736818 2.57348721,11.2380952 C2.77705278,11.6025087 3.22790264,11.7273659 3.58071899,11.5168343 L3.58071899,11.5168343 L4.08636047,11.2153606 C4.36869644,11.0470262 4.72447848,11.0903098 4.9612788,11.3218011 C5.46425912,11.8135048 6.07148527,12.1778176 6.73578796,12.3821805 C7.04829357,12.4783183 7.26257056,12.7752183 7.26266147,13.112211 L7.26266147,13.112211 L7.26282385,13.7142857 C7.26282385,14.1350741 7.59286886,14.4761905 8,14.4761905 C8.40713114,14.4761905 8.73717615,14.1350741 8.73717617,13.7140733 L8.73717617,13.7140733 L8.73733853,13.112211 C8.73742944,12.7752183 8.95170643,12.4783183 9.26421204,12.3821805 C9.92851473,12.1778176 10.5357409,11.8135048 11.0387212,11.3218011 C11.2755215,11.0903098 11.6313036,11.0470262 11.9136395,11.2153606 L11.9136395,11.2153606 L12.4195114,11.5169717 C12.7720974,11.7273659 13.2229472,11.6025087 13.4265128,11.2380952 C13.6300784,10.8736818 13.5092735,10.4077082 13.15661,10.1972677 L13.15661,10.1972677 L12.6521943,9.89618948 C12.3700978,9.72781025 12.228378,9.38802643 12.3036138,9.06044139 C12.3826981,8.71609973 12.4230569,8.3610708 12.4230569,8 C12.4230569,7.6389292 12.3826981,7.28390027 12.3036138,6.93955861 C12.228378,6.61197357 12.3700978,6.27218975 12.6521943,6.10381052 L12.6521943,6.10381052 L13.1566876,5.80268602 C13.5092735,5.59229183 13.6300784,5.12631819 13.4265128,4.76190476 C13.2229472,4.39749133 12.7720974,4.27263407 12.419281,4.48316571 L12.419281,4.48316571 L11.9136395,4.78463941 C11.6313036,4.95297383 11.2755215,4.90969022 11.0387212,4.67819887 C10.5357409,4.18649521 9.92851473,3.82218241 9.26421204,3.61781946 C8.95170643,3.52168171 8.73742944,3.22478174 8.73733853,2.88778898 L8.73733853,2.88778898 L8.73717615,2.28571429 C8.73717615,1.8649259 8.40713114,1.52380952 8,1.52380952 Z M8,5.33333333 C9.424959,5.33333333 10.5801165,6.52724067 10.5801165,8 C10.5801165,9.47275933 9.424959,10.6666667 8,10.6666667 C6.575041,10.6666667 5.41988349,9.47275933 5.41988349,8 C5.41988349,6.52724067 6.575041,5.33333333 8,5.33333333 Z M8,6.85714286 C7.38930329,6.85714286 6.89423578,7.36881743 6.89423578,8 C6.89423578,8.63118257 7.38930329,9.14285714 8,9.14285714 C8.61069671,9.14285714 9.10576422,8.63118257 9.10576422,8 C9.10576422,7.36881743 8.61069671,6.85714286 8,6.85714286 Z" id="配置设置" fill="#FFFFFF" fill-rule="nonzero"></path>
                </g>
            </g>
        </g>
    </g>
</svg>