<?xml version="1.0" encoding="UTF-8"?>
<svg width="14px" height="14px" viewBox="0 0 14 14" version="1.1" xmlns="http://www.w3.org/2000/svg" xmlns:xlink="http://www.w3.org/1999/xlink">
    <title>形状结合备份 8</title>
    <g id="1.0" stroke="none" stroke-width="1" fill="none" fill-rule="evenodd">
        <g id="地图管理" transform="translate(-462.000000, -512.000000)" fill="#222222" fill-rule="nonzero">
            <g id="编组-15" transform="translate(250.000000, 170.000000)">
                <g id="编组-6" transform="translate(210.000000, 340.000000)">
                    <path d="M15.3295504,14.6591262 C15.6998295,14.6591262 16,14.9592911 16,15.3295631 C16,15.6830046 15.7264975,15.9725674 15.3795869,15.9981611 L15.3295504,16 L9.29550435,16 C8.92522528,16 8.62505479,15.6998352 8.62505479,15.3295631 C8.62505479,14.9761216 8.89855724,14.6865588 9.24546791,14.6609652 L9.29550435,14.6591262 L15.3295504,14.6591262 Z M6.08598407,3.67663339 C7.01166423,2.07330832 9.06185263,1.52398279 10.665208,2.44968046 C12.2685634,3.37537814 12.8179278,5.42555615 11.8922476,7.02888122 L11.8922476,7.02888122 L7.89609096,13.9504276 C7.82084926,14.08075 7.70395042,14.1819692 7.56420504,14.2377976 L7.56420504,14.2377976 L3.53914281,15.8458134 C3.1362573,16.0067665 2.68890251,15.7484861 2.62684923,15.3191004 L2.62684923,15.3191004 L2.00690062,11.0292864 C1.98537674,10.8803492 2.01458571,10.7285022 2.08982741,10.5981798 L2.08982741,10.5981798 Z M6.577,5.508 L3.36713104,11.0675269 L3.83216307,14.2847652 L6.85122439,13.078295 L10.06,7.519 L6.577,5.508 Z M9.99477116,3.6109112 C9.03275792,3.05549259 7.80264487,3.38508792 7.24723678,4.34708296 L7.24723678,4.34708296 L10.7309949,6.35843165 C11.2737801,5.41830013 10.9713099,4.22210526 10.0593801,3.64981507 L10.0593801,3.64981507 Z" id="形状结合备份-8"></path>
                </g>
            </g>
        </g>
    </g>
</svg>