<?xml version="1.0" encoding="UTF-8"?>
<svg width="16px" height="16px" viewBox="0 0 16 16" version="1.1" xmlns="http://www.w3.org/2000/svg" xmlns:xlink="http://www.w3.org/1999/xlink">
    <title>编组 7</title>
    <g id="1.0" stroke="none" stroke-width="1" fill="none" fill-rule="evenodd">
        <g id="申请信息查看" transform="translate(-1830.000000, -58.000000)">
            <g id="编组-7" transform="translate(1830.000000, 58.000000)">
                <rect id="矩形" fill="#D8D8D8" opacity="0" x="0" y="0" width="16" height="16"></rect>
                <path d="M4.46894078,7.00653449 C4.71704547,7.25463918 4.72292013,7.65529225 4.49051747,7.92362675 L4.45569658,7.96102937 C4.20060981,8.21611614 3.79963937,8.23311382 3.53765222,8.00806969 L3.5012017,7.97427356 L1.14807498,5.62114684 C0.899970293,5.37304215 0.894095628,4.97238908 1.12649829,4.70405457 L1.16131918,4.66665196 L3.58066685,2.24730428 C3.84790062,1.98007052 4.27524253,1.97414089 4.53516173,2.23406009 C4.78326642,2.48216478 4.78914109,2.88281785 4.55673843,3.15115236 L4.52191754,3.18855497 L3.29,4.419 L10.3410468,4.41987197 C12.9141156,4.41987197 15,6.56445667 15,9.20993598 C15,11.8196656 12.9701099,13.9419468 10.4450895,13.9988292 L10.3410468,14 L4.35096409,14 C3.98338283,14 3.68539935,13.6936308 3.68539935,13.3157051 C3.68539935,12.954958 3.95690909,12.6594099 4.30129221,12.6332872 L4.35096409,12.6314103 L10.3410468,12.6314103 C12.1789531,12.6314103 13.6688705,11.0995641 13.6688705,9.20993598 C13.6688705,7.3523355 12.2290307,5.84049146 10.4341942,5.78977615 L10.3410468,5.78846168 L3.251,5.788 L4.46894078,7.00653449 Z" id="形状结合" fill="#FFFFFF" fill-rule="nonzero"></path>
            </g>
        </g>
    </g>
</svg>