<?xml version="1.0" encoding="UTF-8"?>
<svg width="16px" height="16px" viewBox="0 0 16 16" version="1.1" xmlns="http://www.w3.org/2000/svg" xmlns:xlink="http://www.w3.org/1999/xlink">
    <title>编组 20</title>
    <g id="1.0" stroke="none" stroke-width="1" fill="none" fill-rule="evenodd">
        <g id="地图管理" transform="translate(-377.000000, -12.000000)">
            <g id="编组-11" transform="translate(377.000000, 9.000000)">
                <g id="编组-20" transform="translate(0.000000, 3.000000)">
                    <rect id="矩形备份-2" fill="#D8D8D8" opacity="0" x="0" y="0" width="16" height="16"></rect>
                    <path d="M8.03711194,0 C11.4057988,0 14.1366591,2.72893105 14.1366591,6.0952381 C14.1366591,7.51436754 13.32365,9.35631282 11.6976317,11.6210739 L11.465469,11.9398312 L11.2227535,12.2640766 C11.0987575,12.4275713 10.9708042,12.5931241 10.8388936,12.7607349 L10.5697959,13.0987007 C10.4783379,13.2122707 10.385121,13.3267553 10.2901454,13.4421546 L9.999942,13.7910967 C9.95069536,13.849711 9.90100903,13.908554 9.85088299,13.9676257 L9.54485035,14.3248 L9.22826486,14.6874624 L8.90112651,15.055613 L8.56343532,15.4292517 C8.50627405,15.4919821 8.44867308,15.5549413 8.39063241,15.6181291 L8.03711194,16 L7.68359147,15.6181291 L7.34062385,15.2417463 C7.28434199,15.1794732 7.22849982,15.1174287 7.17309736,15.055613 L6.84595902,14.6874624 L6.52937353,14.3248 L6.22334088,13.9676257 L5.92786109,13.6159396 C5.78275941,13.4414686 5.64161504,13.2690556 5.50442799,13.0987007 L5.23533032,12.7607349 C5.1034197,12.5931241 4.9754664,12.4275713 4.85147041,12.2640766 L4.60875487,11.9398312 L4.37659217,11.6210739 C2.7505739,9.35631282 1.93756477,7.51436754 1.93756477,6.0952381 C1.93756477,2.72893105 4.66842506,0 8.03711194,0 Z M13.0825624,11.2576094 C15.4447093,11.7742748 16.3724456,12.6833724 15.8657712,13.9849021 C15.4096459,15.1565828 12.7652712,16 9.53054245,16 C9.94516872,15.5272239 10.3382538,15.0456052 10.7097976,14.555144 C13.6050714,14.9844429 16.9288408,12.8623397 12.0764949,12.6391828 L12.0764949,12.6391828 Z M2.91743759,11.2576094 L3.92350512,12.6391828 C-0.92884081,12.8623397 2.39492859,14.9844429 5.29020237,14.555144 C5.66174622,15.0456052 6.05483128,15.5272239 6.46945755,16 C3.23472877,16 0.590354073,15.1565828 0.134228792,13.9849021 C-0.372445609,12.6833724 0.555290656,11.7742748 2.91743759,11.2576094 Z M8.03711194,1.52380952 C5.51059678,1.52380952 3.46245156,3.57050781 3.46245156,6.0952381 C3.46245156,6.79419837 3.76796672,7.70711624 4.38330686,8.81638097 L4.52515087,9.06610913 C4.54964212,9.10826678 4.57455881,9.15069197 4.59990115,9.19338382 L4.75706486,9.4527276 C4.78411071,9.49648249 4.81158266,9.54050223 4.83948091,9.58478595 L5.01198798,9.85364872 C5.04159237,9.89898473 5.07162351,9.94458292 5.10208162,9.9904424 L5.28995569,10.2687275 L5.48808756,10.5532405 L5.69648774,10.8439385 L5.91516676,11.1407785 C5.95247041,11.1907612 5.99020279,11.2409981 6.02836411,11.2914883 L6.26248106,11.5974607 L6.50690312,11.9094677 L6.63298185,12.0677208 L6.63298185,12.0677208 L6.89288127,12.3886993 C6.93705849,12.4426908 6.98166619,12.4969294 7.02670458,12.5514139 L7.30210501,12.8812672 L7.58785257,13.2169833 L7.88395779,13.5585193 L8.03711194,13.7329524 L8.33860153,13.3882806 C8.38798477,13.3313184 8.43693564,13.2745984 8.48545437,13.2181214 L8.77138289,12.882183 L9.04695085,12.5521202 C9.09201607,12.4976018 9.13665005,12.4433299 9.18085301,12.3893055 L9.44090041,12.068136 C9.52586002,11.9620742 9.60909738,11.8570094 9.69061428,11.7529487 L9.9300054,11.4437861 C10.0080832,11.3417408 10.0844423,11.2407067 10.1590846,11.140691 L10.3778627,10.8437059 L10.5863504,10.5528735 C10.6880235,10.4090026 10.7858417,10.2674549 10.8798112,10.1282545 L11.0626204,9.85299029 C11.0922339,9.8076369 11.1214203,9.76254609 11.1501796,9.71771875 L11.3176141,9.45192342 L11.4748122,9.19249394 C12.2098828,7.95403759 12.5866343,6.94014508 12.6105557,6.1724782 L12.6117723,6.0952381 C12.6117723,3.57050781 10.5636271,1.52380952 8.03711194,1.52380952 Z M8.03711194,3.80952381 C9.30036952,3.80952381 10.3244421,4.83287295 10.3244421,6.0952381 C10.3244421,7.35760324 9.30036952,8.38095238 8.03711194,8.38095238 C6.77385436,8.38095238 5.74978175,7.35760324 5.74978175,6.0952381 C5.74978175,4.83287295 6.77385436,3.80952381 8.03711194,3.80952381 Z M8.03711194,5.33333333 C7.61602608,5.33333333 7.27466854,5.67444971 7.27466854,6.0952381 C7.27466854,6.51602648 7.61602608,6.85714286 8.03711194,6.85714286 C8.4581978,6.85714286 8.79955533,6.51602648 8.79955533,6.0952381 C8.79955533,5.67444971 8.4581978,5.33333333 8.03711194,5.33333333 Z" id="形状结合" fill="#FFFFFF" fill-rule="nonzero"></path>
                </g>
            </g>
        </g>
    </g>
</svg>