<?xml version="1.0" encoding="UTF-8"?>
<svg width="14px" height="14px" viewBox="0 0 14 14" version="1.1" xmlns="http://www.w3.org/2000/svg" xmlns:xlink="http://www.w3.org/1999/xlink">
    <title>形状</title>
    <g id="1.0" stroke="none" stroke-width="1" fill="none" fill-rule="evenodd">
        <g id="图层绘制" transform="translate(-1652.000000, -136.000000)" fill="#FFFFFF" fill-rule="nonzero">
            <g id="编组-5备份" transform="translate(1634.000000, 127.000000)">
                <path d="M31.9982916,9.61931053 L31.9999463,9.66707258 L31.9999463,13.3333754 C31.9999463,13.7015287 31.7014706,13.9999759 31.3332822,13.9999759 C30.9818296,13.9999759 30.6938963,13.7280436 30.6684467,13.3831246 L30.6666181,13.3333754 L30.6666181,10.576649 L27.1372164,11.6910909 C27.0206494,11.7278986 26.8965973,11.7318371 26.7785822,11.7030723 L26.7201403,11.6859655 L22.9369811,10.388001 L19.3333282,12.1898222 L19.3333282,14.1544884 L22.5659115,12.6962726 C22.6213996,12.6712365 22.682405,12.6619901 22.7422943,12.6690968 L22.7868982,12.6775018 L26.2891439,13.588095 C26.4673132,13.6344195 26.574191,13.816394 26.5278621,13.9945463 C26.4848424,14.1599735 26.324848,14.2639357 26.1595589,14.2408534 L26.1213721,14.2332417 L22.7329819,13.3520402 L19.3333282,14.8860825 L19.3333282,17.487491 L22.5659115,16.0292751 C22.733713,15.9535636 22.9311252,16.0282044 23.0068439,16.1959899 C23.0771541,16.3517908 23.0178115,16.5331208 22.8746239,16.618849 L22.8401131,16.6368803 L19.3333282,18.2190851 L19.3333282,21.2229257 L21.8041454,19.9106706 C22.1138016,19.7461495 22.4946514,19.850345 22.6794604,20.141482 L22.705678,20.1865444 C22.8702149,20.4961712 22.7660094,20.8769846 22.4748446,21.061776 L22.4297779,21.0879911 L18.9794804,22.9211425 C18.5502472,23.1491951 18.0355948,22.8560936 18.0017616,22.3821428 L18,22.3324823 L18,11.7779742 C18,11.5435195 18.1230145,11.3277501 18.3214203,11.2077146 L18.3685229,11.1817486 L22.5907289,9.07084696 C22.7329021,8.99976713 22.8951627,8.98210249 23.0482635,9.01980338 L23.1051898,9.03654029 L26.945299,10.3533378 L31.1325257,9.03141484 C31.5468597,8.90058287 31.9686894,9.19418901 31.9982916,9.61931053 Z M28.0210559,14.3332762 C28.6485911,14.3332762 29.1612694,14.8249898 29.1947507,15.4441875 L29.19649,15.5086823 L29.1962904,15.600817 L29.2976033,15.6403444 C29.5139299,15.7291549 29.7198293,15.8399283 29.9120796,15.9705544 L30.0257661,16.0512956 L30.1149535,16.1200988 L30.2374734,16.0512253 C30.7561294,15.7591247 31.4036201,15.902831 31.7532602,16.3680554 L31.7908617,16.4210643 L31.8376846,16.4966263 C32.1534784,17.0301798 31.9938861,17.7133442 31.4850656,18.054187 L31.4292186,18.0893735 L31.3136156,18.1545636 L31.3315776,18.2810696 L31.3442796,18.4086536 L31.351925,18.5370585 L31.3544807,18.6661795 C31.3544807,18.7524755 31.3510657,18.8383641 31.3442796,18.9237054 L31.3315776,19.0512894 L31.3136156,19.1774621 L31.4076445,19.2305289 C31.9285973,19.5239231 32.1362545,20.1587502 31.9080733,20.6964491 L31.88092,20.7557714 L31.8501423,20.8141606 L31.7908617,20.9112947 C31.4638697,21.4001783 30.8232187,21.5717739 30.2954537,21.3117134 L30.2372994,21.2810356 L30.1149535,21.2119268 L30.0257661,21.2810634 C29.8391044,21.4195462 29.6381491,21.5385983 29.4261222,21.6361095 L29.2976033,21.6920145 L29.1962904,21.7312086 L29.19649,21.8237608 C29.19649,22.4295991 28.7380593,22.9283753 28.1491324,22.9921862 L28.0855487,22.9973437 L28.0210559,22.9990828 L27.9788674,22.9990828 C27.3513322,22.9990828 26.8386539,22.5073692 26.8051726,21.8881714 L26.8034333,21.8236767 L26.8032996,21.7312086 L26.70232,21.6920145 C26.4859934,21.603204 26.280094,21.4924306 26.0878437,21.3618045 L25.9741572,21.2810634 L25.8846364,21.2119268 L25.7624499,21.2811337 C25.2437939,21.5732343 24.5963032,21.429528 24.2466631,20.9643036 L24.2090616,20.9112947 L24.1622387,20.8357327 C23.8464449,20.3021791 24.0060372,19.6190147 24.5148577,19.278172 L24.5707047,19.2429854 L24.6859744,19.1774621 L24.6683457,19.0512894 L24.6556437,18.9237054 L24.6479984,18.7953004 L24.6454426,18.6661795 C24.6454426,18.5798835 24.6488576,18.4939949 24.6556437,18.4086536 L24.6683457,18.2810696 L24.6859744,18.1545636 L24.5922788,18.10183 C24.071326,17.8084359 23.8636688,17.1736088 24.09185,16.6359099 L24.1190033,16.5765875 L24.149781,16.5181983 L24.2090616,16.4210643 C24.5360536,15.9321806 25.1767046,15.760585 25.7044696,16.0206455 L25.7626239,16.0513233 L25.8846364,16.1200988 L25.9741572,16.0512956 C26.1608189,15.9128128 26.3617742,15.7937606 26.5738011,15.6962494 L26.70232,15.6403444 L26.8032996,15.600817 L26.8034333,15.5085981 C26.8034333,14.9027599 27.261864,14.4039837 27.8507909,14.3401728 L27.9143746,14.3350153 L27.9788674,14.3332762 L28.0210559,14.3332762 Z M27.9999617,16.9996782 C27.0794906,16.9996782 26.3333014,17.7457962 26.3333014,18.6661795 C26.3333014,19.5865627 27.0794906,20.3326807 27.9999617,20.3326807 C28.9204327,20.3326807 29.6666219,19.5865627 29.6666219,18.6661795 C29.6666219,17.7457962 28.9204327,16.9996782 27.9999617,16.9996782 Z" id="形状"></path>
            </g>
        </g>
    </g>
</svg>