<?xml version="1.0" encoding="UTF-8"?>
<svg width="18px" height="18px" viewBox="0 0 18 18" version="1.1" xmlns="http://www.w3.org/2000/svg" xmlns:xlink="http://www.w3.org/1999/xlink">
    <title>图层发布</title>
    <g id="1.0" stroke="none" stroke-width="1" fill="none" fill-rule="evenodd">
        <g id="图层发布" transform="translate(-1795.000000, -296.000000)">
            <g id="操作备份" transform="translate(1769.000000, 296.000000)">
                <g id="编组-14" transform="translate(26.000000, 0.000000)">
                    <rect id="矩形" fill="#D8D8D8" opacity="0" x="0" y="0" width="18" height="18"></rect>
                    <path d="M15.0543998,2.06457765 C15.5492823,1.83078032 16.0963821,2.26708037 15.9855382,2.80714009 L15.9855382,2.80714009 L13.3875459,15.4652272 C13.2980529,15.9012602 12.819789,16.1294122 12.4292049,15.9223962 L12.4292049,15.9223962 L8.89736958,14.0503913 L6.2289724,15.8831668 C5.82623544,16.1597305 5.28195522,15.9180232 5.20182314,15.4443446 L5.20182314,15.4443446 L5.19521415,15.3945276 L4.80050205,11.3214577 L2.23955158,9.1730457 C1.87884686,8.87046105 1.93699611,8.3018126 2.33659668,8.07497714 L2.33659668,8.07497714 L2.38239796,8.05121072 Z M14.4170417,3.84435367 L3.89167236,8.81725582 L5.85875224,10.467141 C5.97821086,10.5673514 6.05857699,10.7062414 6.08690442,10.8591594 L6.08690442,10.8591594 L6.09506261,10.9171131 L6.40712978,14.140485 L8.48027278,12.7168486 C8.6673359,12.5883904 8.90509238,12.565657 9.11124474,12.6533836 L9.11124474,12.6533836 L9.16207678,12.6776192 L12.2662443,14.3226818 L14.4170417,3.84435367 Z M12.1197795,6.80957274 C12.3653143,7.05737959 12.3782594,7.45107276 12.1585987,7.7142623 L12.1198349,7.75687146 L8.7605168,11.1480748 C8.50137175,11.4096795 8.08118984,11.4097045 7.82201422,11.1481307 C7.57647943,10.9003238 7.56353431,10.5066306 7.783195,10.2434411 L7.82195888,10.2008319 L11.1812769,6.80962861 C11.440422,6.54802387 11.8606039,6.54799885 12.1197795,6.80957274 Z" id="推送" fill="#3876E6" fill-rule="nonzero"></path>
                </g>
            </g>
        </g>
    </g>
</svg>