<?xml version="1.0" encoding="UTF-8"?>
<svg width="14px" height="14px" viewBox="0 0 14 14" version="1.1" xmlns="http://www.w3.org/2000/svg" xmlns:xlink="http://www.w3.org/1999/xlink">
    <title>不通过</title>
    <g id="1.0" stroke="none" stroke-width="1" fill="none" fill-rule="evenodd">
        <g id="在线图层绘制" transform="translate(-1264.000000, -133.000000)" fill="#FFFFFF" fill-rule="nonzero">
            <g id="编组-14" transform="translate(1248.000000, 123.000000)">
                <path d="M23,10 C26.8659932,10 30,13.1340068 30,17 C30,20.8659932 26.8659932,24 23,24 C19.1340068,24 16,20.8659932 16,17 C16,13.1340068 19.1340068,10 23,10 Z M23,11.3333333 C19.8703864,11.3333333 17.3333333,13.8703864 17.3333333,17 C17.3333333,20.1296136 19.8703864,22.6666667 23,22.6666667 C26.1296136,22.6666667 28.6666667,20.1296136 28.6666667,17 C28.6666667,13.8703864 26.1296136,11.3333333 23,11.3333333 Z M25.8047379,14.5285955 C26.0513848,14.7752424 26.0643662,15.1670705 25.8436821,15.4289996 L25.8047379,15.4714045 L24.109,17.166 L25.8047379,18.8619288 C26.0650874,19.1222783 26.0650874,19.5443883 25.8047379,19.8047379 C25.5580909,20.0513848 25.1662629,20.0643662 24.9043337,19.8436821 L24.8619288,19.8047379 L23.166,18.109 L21.4714045,19.8047379 C21.211055,20.0650874 20.788945,20.0650874 20.5285955,19.8047379 C20.2819486,19.5580909 20.2689671,19.1662629 20.4896512,18.9043337 L20.5285955,18.8619288 L22.223,17.166 L20.5285955,15.4714045 C20.268246,15.211055 20.268246,14.788945 20.5285955,14.5285955 C20.7752424,14.2819486 21.1670705,14.2689671 21.4289996,14.4896512 L21.4714045,14.5285955 L23.166,16.223 L24.8619288,14.5285955 C25.1222783,14.268246 25.5443883,14.268246 25.8047379,14.5285955 Z" id="不通过"></path>
            </g>
        </g>
    </g>
</svg>