<?xml version="1.0" encoding="UTF-8"?>
<svg width="18px" height="18px" viewBox="0 0 18 18" version="1.1" xmlns="http://www.w3.org/2000/svg" xmlns:xlink="http://www.w3.org/1999/xlink">
    <title>移动</title>
    <g id="1.0" stroke="none" stroke-width="1" fill="none" fill-rule="evenodd">
        <g id="图层绘制" transform="translate(-1740.000000, -296.000000)">
            <g id="操作备份" transform="translate(1714.000000, 296.000000)">
                <g id="移动" transform="translate(26.000000, 0.000000)">
                    <rect id="矩形备份-10" fill="#D8D8D8" opacity="0" x="0" y="0" width="18" height="18"></rect>
                    <path d="M6.61419944,2 C6.99224617,2 7.36255111,2.10714789 7.68218542,2.30902219 L7.68218542,2.30902219 L10.1964719,3.8969926 C10.3030167,3.96428404 10.4264517,4 10.5524672,4 L10.5524672,4 L14,4 C15.1045695,4 16,4.8954305 16,6 L16,6 L16,14 C16,15.1045695 15.1045695,16 14,16 L14,16 L4,16 C2.8954305,16 2,15.1045695 2,14 L2,14 L2,4 C2,2.8954305 2.8954305,2 4,2 L4,2 Z M6.61419944,3.33333333 L4,3.33333333 C3.63181017,3.33333333 3.33333333,3.63181017 3.33333333,4 L3.33333333,4 L3.33333333,14 C3.33333333,14.3681898 3.63181017,14.6666667 4,14.6666667 L4,14.6666667 L14,14.6666667 C14.3681898,14.6666667 14.6666667,14.3681898 14.6666667,14 L14.6666667,14 L14.6666667,6 C14.6666667,5.63181017 14.3681898,5.33333333 14,5.33333333 L14,5.33333333 L10.5524672,5.33333333 C10.1744205,5.33333333 9.80411556,5.22618544 9.48448125,5.02431114 L9.48448125,5.02431114 L6.97019477,3.43634073 C6.86364999,3.3690493 6.74021502,3.33333333 6.61419944,3.33333333 L6.61419944,3.33333333 Z M10.6015967,7.54005333 L10.6380712,7.5739418 L12.7593915,9.69526215 C13.007907,9.9437776 13.0192031,10.3396822 12.79328,10.6015967 L12.7593915,10.6380712 L10.6380712,12.7593915 C10.3777217,13.0197411 9.95561167,13.0197411 9.69526215,12.7593915 C9.44674669,12.5108761 9.43545053,12.1149714 9.66137367,11.853057 L9.69526215,11.8165825 L10.678,10.833 L5.83333333,10.8333333 C5.4651435,10.8333333 5.16666667,10.5348565 5.16666667,10.1666667 C5.16666667,9.81521273 5.43862593,9.52727829 5.78357922,9.50182858 L5.83333333,9.5 L10.678,9.499 L9.69526215,8.51675084 C9.44674669,8.26823539 9.43545053,7.87233075 9.66137367,7.61041627 L9.69526215,7.5739418 C9.9437776,7.32542634 10.3396822,7.31413019 10.6015967,7.54005333 Z" id="形状结合" fill="#3876E6" fill-rule="nonzero"></path>
                </g>
            </g>
        </g>
    </g>
</svg>