<?xml version="1.0" encoding="UTF-8"?>
<svg width="14px" height="14px" viewBox="0 0 14 14" version="1.1" xmlns="http://www.w3.org/2000/svg" xmlns:xlink="http://www.w3.org/1999/xlink">
    <title>形状结合</title>
    <g id="1.0" stroke="none" stroke-width="1" fill="none" fill-rule="evenodd">
        <g id="图层绘制" transform="translate(-1533.000000, -136.000000)" fill="#FFFFFF" fill-rule="nonzero">
            <g id="编组-5备份-2" transform="translate(1514.000000, 127.000000)">
                <g id="编组-4" transform="translate(19.000000, 6.000000)">
                    <path d="M12,3 C13.0794656,3 13.9591906,3.85519163 13.9986205,4.92502058 L14,5 L14,9.36038921 C14,9.72857904 13.7015232,10.0270559 13.3333333,10.0270559 C12.9818794,10.0270559 12.693945,9.75509661 12.6684952,9.41014332 L12.6666667,9.36038921 L12.6666667,5 C12.6666667,4.64854607 12.3947074,4.36061163 12.0497541,4.33516191 L12,4.33333333 L2,4.33333333 C1.64854607,4.33333333 1.36061163,4.6052926 1.33516191,4.95024589 L1.33333333,5 L1.33333333,15 C1.33333333,15.3514539 1.6052926,15.6393884 1.95024589,15.6648381 L2,15.6666667 L4.74329399,15.6666667 C5.11148383,15.6666667 5.40996066,15.9651435 5.40996066,16.3333333 C5.40996066,16.6847873 5.1380014,16.9727217 4.79304811,16.9981714 L4.74329399,17 L2,17 C0.920534353,17 0.0408094127,16.1448084 0.00137949069,15.0749794 L0,15 L0,5 C0,3.92053435 0.85519163,3.04080941 1.92502058,3.00137949 L2,3 L12,3 Z M6.09812265,8.1664937 C6.04072205,7.85936119 6.21428008,7.73924196 6.48352859,7.89894484 L6.48352859,7.89894484 L13.8157336,12.2559942 C14.0836123,12.4143425 14.0562682,12.6054333 13.7542507,12.6805094 C13.7542507,12.6805094 12.2741223,13.0463251 11.2258847,13.4803908 L11.2258847,13.4803908 L12.7479273,15.744645 C12.9923071,16.1081948 12.8994187,16.6006144 12.5393883,16.8501501 L12.5393883,16.8501501 C12.1776651,17.0977074 11.6890056,17.0061272 11.4440945,16.6482462 L11.4440945,16.6482462 L9.90020647,14.3922106 C9.08293846,15.2630921 8.08663539,16.6894994 8.08663539,16.6894994 C7.9075976,16.9447478 7.71490134,16.9024413 7.65750088,16.5953225 L7.65750088,16.5953225 Z" id="形状结合"></path>
                </g>
            </g>
        </g>
    </g>
</svg>