<?xml version="1.0" encoding="UTF-8"?>
<svg width="14px" height="14px" viewBox="0 0 14 14" version="1.1" xmlns="http://www.w3.org/2000/svg" xmlns:xlink="http://www.w3.org/1999/xlink">
    <title>形状结合</title>
    <g id="1.0" stroke="none" stroke-width="1" fill="none" fill-rule="evenodd">
        <g id="在线图层绘制" transform="translate(-1144.000000, -133.000000)" fill="#FFFFFF" fill-rule="nonzero">
            <g id="编组-15" transform="translate(1128.000000, 123.000000)">
                <path d="M23,10 C24.8097466,10 26.2826439,11.4422236 26.3320527,13.2400317 L26.3333333,13.3333333 L29.3333333,13.3333333 C29.7015232,13.3333333 30,13.6318102 30,14 C30,14.3514539 29.7280407,14.6393884 29.3830874,14.6648381 L29.3333333,14.6666667 L28,14.666 L28,22 C28,23.0543618 27.1841222,23.9181651 26.1492623,23.9945143 L26,24 L20,24 C18.8954305,24 18,23.1045695 18,22 L18,22 L18,14.666 L16.6666667,14.6666667 C16.2984768,14.6666667 16,14.3681898 16,14 C16,13.6485461 16.2719593,13.3606116 16.6169126,13.3351619 L16.6666667,13.3333333 L19.6666667,13.3333333 C19.6666667,11.4923842 21.1590508,10 23,10 Z M26.6666667,14.6665645 L19.3333333,14.6665645 L19.3333333,22 C19.3333333,22.3514539 19.6052926,22.6393884 19.9502459,22.6648381 L19.9502459,22.6648381 L20,22.6666667 L26,22.6666667 C26.3681898,22.6666667 26.6666667,22.3681898 26.6666667,22 L26.6666667,22 L26.6666667,14.6665645 Z M21.6666667,16.3333333 C22.0181206,16.3333333 22.306055,16.6052926 22.3315048,16.9502459 L22.3333333,17 L22.3333333,20.3333333 C22.3333333,20.7015232 22.0348565,21 21.6666667,21 C21.3152127,21 21.0272783,20.7280407 21.0018286,20.3830874 L21,20.3333333 L21,17 C21,16.6318102 21.2984768,16.3333333 21.6666667,16.3333333 Z M24.3333333,16.3333333 C24.6847873,16.3333333 24.9727217,16.6052926 24.9981714,16.9502459 L25,17 L25,20.3333333 C25,20.7015232 24.7015232,21 24.3333333,21 C23.9818794,21 23.693945,20.7280407 23.6684952,20.3830874 L23.6666667,20.3333333 L23.6666667,17 C23.6666667,16.6318102 23.9651435,16.3333333 24.3333333,16.3333333 Z M23,11.3333333 C21.9205344,11.3333333 21.0408094,12.188525 21.0013795,13.2583539 L21,13.3333333 L25,13.3333333 C25,12.2287638 24.1045695,11.3333333 23,11.3333333 Z" id="形状结合"></path>
            </g>
        </g>
    </g>
</svg>