<?xml version="1.0" encoding="UTF-8"?>
<svg width="18px" height="18px" viewBox="0 0 18 18" version="1.1" xmlns="http://www.w3.org/2000/svg" xmlns:xlink="http://www.w3.org/1999/xlink">
    <title>绑定数据</title>
    <g id="1.0" stroke="none" stroke-width="1" fill="none" fill-rule="evenodd">
        <g id="图层管理" transform="translate(-1795.000000, -236.000000)">
            <g id="操作" transform="translate(1769.000000, 236.000000)">
                <g id="编组-14" transform="translate(26.000000, 0.000000)">
                    <rect id="矩形" fill="#D8D8D8" opacity="0" x="0" y="0" width="18" height="18"></rect>
                    <path d="M12.047619,4 C14.7827435,4 17,6.46243388 17,9.5 C17,12.4941723 14.8456412,14.9295274 12.1645167,14.9984979 L12.047619,15 L10.1667483,15 C9.74595989,15 9.40484351,14.621164 9.40484351,14.1538462 C9.40484351,13.70777 9.71565409,13.3423148 10.1098864,13.3100132 L10.1667483,13.3076923 L12.047619,13.3076923 C13.9411668,13.3076923 15.4761905,11.6029304 15.4761905,9.5 C15.4761905,7.43462193 13.9954996,5.75331901 12.1487094,5.69393108 L12.047619,5.69230769 L10.1667483,5.69230769 C9.74595989,5.69230769 9.40484351,5.31347171 9.40484351,4.84615385 C9.40484351,4.4000777 9.71565409,4.03462245 10.1098864,4.00232089 L10.1667483,4 L12.047619,4 Z M7.67675229,4 C8.09754067,4 8.43865705,4.37883598 8.43865705,4.84615385 C8.43865705,5.29222999 8.12784646,5.65768524 7.73361413,5.6899868 L7.67675229,5.69230769 L5.95238095,5.69230769 C4.05883324,5.69230769 2.52380952,7.39706961 2.52380952,9.5 C2.52380952,11.5653781 4.00450045,13.246681 5.85129057,13.3060689 L5.95238095,13.3076923 L7.67675229,13.3076923 C8.09754067,13.3076923 8.43865705,13.6865283 8.43865705,14.1538462 C8.43865705,14.5999223 8.12784646,14.9653776 7.73361413,14.9976791 L7.67675229,15 L5.95238095,15 C3.21725648,15 1,12.5375661 1,9.5 C1,6.50582768 3.15435879,4.07047263 5.83548335,4.00150211 L5.95238095,4 L7.67675229,4 Z M10.5238095,8.65384615 C10.9445979,8.65384615 11.2857143,9.03268213 11.2857143,9.5 C11.2857143,9.94607614 10.9749037,10.3115314 10.5806714,10.343833 L10.5238095,10.3461538 L7.47619048,10.3461538 C7.0554021,10.3461538 6.71428571,9.96731787 6.71428571,9.5 C6.71428571,9.05392386 7.0250963,8.6884686 7.41932863,8.65616704 L7.47619048,8.65384615 L10.5238095,8.65384615 Z" id="形状结合" fill="#3876E6" fill-rule="nonzero"></path>
                </g>
            </g>
        </g>
    </g>
</svg>