<?xml version="1.0" encoding="UTF-8"?>
<svg width="14px" height="14px" viewBox="0 0 14 14" version="1.1" xmlns="http://www.w3.org/2000/svg" xmlns:xlink="http://www.w3.org/1999/xlink">
    <title>预览</title>
    <g id="1.0" stroke="none" stroke-width="1" fill="none" fill-rule="evenodd">
        <g id="地图管理" transform="translate(-1771.000000, -238.000000)" fill="#3876E6" fill-rule="nonzero">
            <g id="编组-13" transform="translate(1769.000000, 236.000000)">
                <path d="M9,2 C12.1253728,2 14.3890302,4.11113455 15.7909721,8.33340366 L16,8.99987715 L15.7908607,9.66693187 C14.3889102,13.8889773 12.12529,16 9,16 C5.87470999,16 3.61108975,13.8889773 2.2091393,9.66693187 L2,9.00012285 L2.20902789,8.33340366 C3.61096983,4.11113455 5.8746272,2 9,2 Z M9,3.33333333 C6.59082255,3.33333333 4.80083658,4.97014892 3.56560992,8.58302523 L3.51147434,8.74369996 L3.42630711,8.9995645 L3.51157846,9.25661363 C4.73050397,12.9274701 6.50320227,14.6173915 8.89411716,14.6656037 L9,14.6666667 C11.4091117,14.6666667 13.199059,13.029946 14.4342859,9.41727904 L14.5733507,8.9995645 L14.4885257,8.74369996 C13.2696015,5.07263085 11.4968656,3.38261136 9.10588572,3.33439636 L9,3.33333333 Z M9,6.66666667 C10.3230097,6.66666667 11.395521,7.71133558 11.395521,9 C11.395521,10.2886644 10.3230097,11.3333333 9,11.3333333 C7.67699029,11.3333333 6.60447902,10.2886644 6.60447902,9 C6.60447902,7.71133558 7.67699029,6.66666667 9,6.66666667 Z M9,8 C8.43299584,8 7.97334815,8.44771525 7.97334815,9 C7.97334815,9.55228475 8.43299584,10 9,10 C9.56700416,10 10.0266519,9.55228475 10.0266519,9 C10.0266519,8.44771525 9.56700416,8 9,8 Z" id="形状结合"></path>
            </g>
        </g>
    </g>
</svg>