<?xml version="1.0" encoding="UTF-8"?>
<svg width="14px" height="14px" viewBox="0 0 14 14" version="1.1" xmlns="http://www.w3.org/2000/svg" xmlns:xlink="http://www.w3.org/1999/xlink">
    <title>删除</title>
    <g id="1.0" stroke="none" stroke-width="1" fill="none" fill-rule="evenodd">
        <g id="地图管理" transform="translate(-1849.000000, -238.000000)" fill="#3876E6" fill-rule="nonzero">
            <g id="操作" transform="translate(1769.000000, 236.000000)">
                <g id="编组-7" transform="translate(78.000000, 0.000000)">
                    <path d="M9,2 C10.8097466,2 12.2826439,3.4422236 12.3320527,5.24003172 L12.3333333,5.33333333 L15.3333333,5.33333333 C15.7015232,5.33333333 16,5.63181017 16,6 C16,6.35145393 15.7280407,6.63938837 15.3830874,6.66483809 L15.3333333,6.66666667 L14,6.666 L14,14 C14,15.0543618 13.1841222,15.9181651 12.1492623,15.9945143 L12,16 L6,16 C4.8954305,16 4,15.1045695 4,14 L4,14 L4,6.666 L2.66666667,6.66666667 C2.29847683,6.66666667 2,6.36818983 2,6 C2,5.64854607 2.27195926,5.36061163 2.61691255,5.33516191 L2.66666667,5.33333333 L5.66666667,5.33333333 C5.66666667,3.49238417 7.15905083,2 9,2 Z M12.6666667,6.6665645 L5.33333333,6.6665645 L5.33333333,14 C5.33333333,14.3514539 5.6052926,14.6393884 5.95024589,14.6648381 L5.95024589,14.6648381 L6,14.6666667 L12,14.6666667 C12.3681898,14.6666667 12.6666667,14.3681898 12.6666667,14 L12.6666667,14 L12.6666667,6.6665645 Z M7.66666667,8.33333333 C8.0181206,8.33333333 8.30605504,8.6052926 8.33150475,8.95024589 L8.33333333,9 L8.33333333,12.3333333 C8.33333333,12.7015232 8.0348565,13 7.66666667,13 C7.31521273,13 7.02727829,12.7280407 7.00182858,12.3830874 L7,12.3333333 L7,9 C7,8.63181017 7.29847683,8.33333333 7.66666667,8.33333333 Z M10.3333333,8.33333333 C10.6847873,8.33333333 10.9727217,8.6052926 10.9981714,8.95024589 L11,9 L11,12.3333333 C11,12.7015232 10.7015232,13 10.3333333,13 C9.9818794,13 9.69394496,12.7280407 9.66849525,12.3830874 L9.66666667,12.3333333 L9.66666667,9 C9.66666667,8.63181017 9.9651435,8.33333333 10.3333333,8.33333333 Z M9,3.33333333 C7.92053435,3.33333333 7.04080941,4.18852496 7.00137949,5.25835391 L7,5.33333333 L11,5.33333333 C11,4.22876383 10.1045695,3.33333333 9,3.33333333 Z" id="形状结合"></path>
                </g>
            </g>
        </g>
    </g>
</svg>