<?xml version="1.0" encoding="UTF-8"?>
<svg width="16px" height="16px" viewBox="0 0 16 16" version="1.1" xmlns="http://www.w3.org/2000/svg" xmlns:xlink="http://www.w3.org/1999/xlink">
    <title>编组</title>
    <g id="1.0" stroke="none" stroke-width="1" fill="none" fill-rule="evenodd">
        <g id="地图管理" transform="translate(-264.000000, -192.000000)" fill="#3876E6">
            <g id="编组-15" transform="translate(250.000000, 170.000000)">
                <g id="编组" transform="translate(14.000000, 22.000000)">
                    <rect id="矩形" opacity="0.15" x="0" y="0" width="16" height="16" rx="1"></rect>
                    <path d="M8.5,0.288675135 L14.4282032,3.71132487 C14.7376043,3.88995766 14.9282032,4.22008468 14.9282032,4.57735027 L14.9282032,11.4226497 C14.9282032,11.7799153 14.7376043,12.1100423 14.4282032,12.2886751 L8.5,15.7113249 C8.19059892,15.8899577 7.80940108,15.8899577 7.5,15.7113249 L1.57179677,12.2886751 C1.26239569,12.1100423 1.07179677,11.7799153 1.07179677,11.4226497 L1.07179677,4.57735027 C1.07179677,4.22008468 1.26239569,3.88995766 1.57179677,3.71132487 L7.5,0.288675135 C7.80940108,0.11004234 8.19059892,0.11004234 8.5,0.288675135 Z M8,6.22222222 C7.01816044,6.22222222 6.22222222,7.01816044 6.22222222,8 C6.22222222,8.98183956 7.01816044,9.77777778 8,9.77777778 C8.98183956,9.77777778 9.77777778,8.98183956 9.77777778,8 C9.77777778,7.01816044 8.98183956,6.22222222 8,6.22222222 Z" id="形状结合"></path>
                </g>
            </g>
        </g>
    </g>
</svg>