<?xml version="1.0" encoding="UTF-8"?>
<svg width="18px" height="18px" viewBox="0 0 18 18" version="1.1" xmlns="http://www.w3.org/2000/svg" xmlns:xlink="http://www.w3.org/1999/xlink">
    <title>编组 2</title>
    <g id="1.0" stroke="none" stroke-width="1" fill="none" fill-rule="evenodd">
        <g id="地图管理" transform="translate(-32.000000, -249.000000)">
            <g id="编组-2" transform="translate(32.000000, 249.000000)">
                <rect id="矩形" fill="#D8D8D8" opacity="0" x="0" y="0" width="18" height="18"></rect>
                <path d="M15.9403524,12.7664599 L15.9599786,12.8147314 C16.0793799,13.1442167 15.9227088,13.5064148 15.608476,13.6483952 L15.5601742,13.668009 L9.22700511,15.9601851 C9.09866413,16.0066358 8.95961665,16.0124422 8.82859904,15.9776041 L8.77299489,15.9601851 L2.43982577,13.668009 C2.09364848,13.5427163 1.91464998,13.1606909 2.04002144,12.8147314 C2.15942284,12.485246 2.51183496,12.3073014 2.84416823,12.3993339 L2.893836,12.4151785 L9,14.6250612 L15.106164,12.4151785 C15.4358567,12.2958521 15.7982827,12.4524248 15.9403524,12.7664599 Z M15.9403524,9.10219414 L15.9599786,9.15046558 C16.0793799,9.47995091 15.9227088,9.84214898 15.608476,9.98412938 L15.5601742,10.0037432 L9.22700511,12.2959193 C9.09866413,12.34237 8.95961665,12.3481764 8.82859904,12.3133384 L8.77299489,12.2959193 L2.43982577,10.0037432 C2.09364848,9.87845057 1.91464998,9.49642517 2.04002144,9.15046558 C2.15942284,8.82098025 2.51183496,8.64303567 2.84416823,8.73506817 L2.893836,8.75091268 L8.99966668,10.9607954 L15.106164,8.75091268 C15.4358567,8.63158638 15.7982827,8.78815898 15.9403524,9.10219414 Z M8.73729511,2.05391036 C8.90504703,1.98202988 9.09495297,1.98202988 9.26270489,2.05391036 L9.26270489,2.05391036 L15.595874,4.76762731 C16.1515028,5.00571023 16.1285935,5.80063325 15.5601742,6.00636235 L15.5601742,6.00636235 L9.22700511,8.2985385 C9.08032971,8.35162501 8.91967029,8.35162501 8.77299489,8.2985385 L8.77299489,8.2985385 L2.43982577,6.00636235 C1.87140648,5.80063325 1.84849716,5.00571023 2.40412599,4.76762731 L2.40412599,4.76762731 Z" id="形状结合" fill="#FFFFFF" fill-rule="nonzero"></path>
            </g>
        </g>
    </g>
</svg>