<?xml version="1.0" encoding="UTF-8"?>
<svg width="18px" height="18px" viewBox="0 0 18 18" version="1.1" xmlns="http://www.w3.org/2000/svg" xmlns:xlink="http://www.w3.org/1999/xlink">
    <title>编组 2备份</title>
    <g id="1.0" stroke="none" stroke-width="1" fill="none" fill-rule="evenodd">
        <g id="地图管理" transform="translate(-32.000000, -289.000000)">
            <g id="编组-2备份" transform="translate(32.000000, 289.000000)">
                <rect id="矩形" fill="#D8D8D8" opacity="0" x="0" y="0" width="18" height="18"></rect>
                <path d="M15.0798682,6.74565866 L15.2073297,6.84850426 L15.275905,6.91141744 C16.0013748,7.60841484 16.0960874,8.74325316 15.5086482,9.55224992 L15.4044166,9.68393471 L10.6257846,15.2336289 C10.5593455,15.3107884 10.4767655,15.3712906 10.3845677,15.4110606 L10.2894056,15.4437688 L8.23688633,15.9783793 C7.84518516,16.0804039 7.46296665,15.8094068 7.41036248,15.4168778 L7.40421991,15.3242513 L7.40421991,13.1189007 C7.40421991,12.9884443 7.44149077,12.8615119 7.51052728,12.7529985 L7.56817471,12.6752998 L12.4048893,7.04952039 C13.088947,6.25386508 14.2540029,6.13296741 15.0798682,6.74565866 Z M4.33333333,2 C4.51742825,2 4.66666667,2.14923842 4.66666667,2.33333333 L4.666,2.675 L13.333,2.675 L13.3333333,2.33333333 C13.3333333,2.14923842 13.4825718,2 13.6666667,2 L15.6666667,2 C15.8507616,2 16,2.14923842 16,2.33333333 L16,4.36826925 C16,4.55236417 15.8507616,4.70160259 15.6666667,4.70160259 L13.6666667,4.70160259 C13.4825718,4.70160259 13.3333333,4.55236417 13.3333333,4.36826925 L13.333,4.026 L4.666,4.026 L4.66666667,4.36826925 C4.66666667,4.55236417 4.51742825,4.70160259 4.33333333,4.70160259 L3.999,4.701 L3.999,13.144 L4.33333333,13.1441107 C4.51742825,13.1441107 4.66666667,13.2933491 4.66666667,13.477444 L4.666,14.157 L6.09192112,14.1572116 C6.44337505,14.1572116 6.7313095,14.4327338 6.75675921,14.7822063 L6.75858779,14.8326123 C6.75858779,15.1886706 6.48662853,15.4803773 6.14167524,15.5061604 L6.09192112,15.5080129 L4.666,15.508 L4.66666667,15.5123799 C4.66666667,15.6964748 4.51742825,15.8457133 4.33333333,15.8457133 L2.33333333,15.8457133 C2.14923842,15.8457133 2,15.6964748 2,15.5123799 L2,13.477444 C2,13.2933491 2.14923842,13.1441107 2.33333333,13.1441107 L2.666,13.144 L2.666,4.701 L2.33333333,4.70160259 C2.14923842,4.70160259 2,4.55236417 2,4.36826925 L2,2.33333333 C2,2.14923842 2.14923842,2 2.33333333,2 L4.33333333,2 Z M13.4908469,7.85765278 L13.4103131,7.93672208 L8.73733333,13.371383 L8.73733333,14.4530371 L9.75733333,14.187267 L14.3996591,8.79595868 C14.5972183,8.56652213 14.6086758,8.23703504 14.4467697,7.99677375 L14.3779534,7.91122791 L14.3374971,7.87228499 L14.2909834,7.8347505 C14.0487992,7.65667495 13.7192334,7.66881747 13.4908469,7.85765278 Z" id="形状结合" fill="#FFFFFF" fill-rule="nonzero"></path>
            </g>
        </g>
    </g>
</svg>