<?xml version="1.0" encoding="UTF-8"?>
<svg width="16px" height="16px" viewBox="0 0 16 16" version="1.1" xmlns="http://www.w3.org/2000/svg" xmlns:xlink="http://www.w3.org/1999/xlink">
    <title>形状结合</title>
    <g id="1.0" stroke="none" stroke-width="1" fill="none" fill-rule="evenodd">
        <g id="创建/编辑图层" transform="translate(-497.000000, -662.000000)" fill="#3280E7" fill-rule="nonzero">
            <g id="编组-8" transform="translate(335.000000, 280.000000)">
                <g id="编组-5" transform="translate(47.000000, 70.000000)">
                    <g id="编组-7备份-3" transform="translate(32.000000, 309.000000)">
                        <path d="M91.4722573,3 C91.8976299,3 92.2424625,3.34111638 92.2424625,3.76190476 C92.2424625,4.1635664 91.9282658,4.49263433 91.5297386,4.52171972 L91.4722573,4.52380952 L85.3106156,4.52380952 C84.9045782,4.52380952 84.5719252,4.83462011 84.542523,5.22885244 L84.5404104,5.28571429 L84.5404104,16.7142857 C84.5404104,17.1159474 84.8546071,17.4450153 85.2531343,17.4741007 L85.3106156,17.4761905 L91.4722573,17.4761905 C91.8976299,17.4761905 92.2424625,17.8173069 92.2424625,18.2380952 C92.2424625,18.6397569 91.9282658,18.9688248 91.5297386,18.9979102 L91.4722573,19 L85.3106156,19 C84.0635005,19 83.0471474,18.0226381 83.0015937,16.7999765 L83,16.7142857 L83,5.28571429 C83,4.05203926 83.9880096,3.04663933 85.2239913,3.00157656 L85.3106156,3 L91.4722573,3 Z M95.4171977,7.17198821 L95.4593209,7.21115593 L98.7270248,10.4788599 C99.0141367,10.7659717 99.0295815,11.2209691 98.7716077,11.520524 L98.7328941,11.5622252 L95.500406,14.7947134 C95.2028636,15.0922557 94.7178245,15.0896279 94.4170406,14.7888441 C94.1299288,14.5017322 94.1144839,14.0467348 94.3724577,13.7471799 L94.4111713,13.7054787 L96.354,11.761 L88.3914365,11.7619048 C87.9660639,11.7619048 87.6212313,11.4207884 87.6212313,11 C87.6212313,10.5983384 87.9354279,10.2692704 88.3339551,10.240185 L88.3914365,10.2380952 L96.331,10.238 L94.3818248,8.28865197 C94.094713,8.00154012 94.0792681,7.54654272 94.3372419,7.24698784 L94.3759555,7.20528663 C94.6599732,6.92126896 95.1148299,6.91075338 95.4171977,7.17198821 Z" id="形状结合" transform="translate(91.000000, 11.000000) rotate(-90.000000) translate(-91.000000, -11.000000) "></path>
                    </g>
                </g>
            </g>
        </g>
    </g>
</svg>