<?xml version="1.0" encoding="UTF-8"?>
<svg width="16px" height="16px" viewBox="0 0 16 16" version="1.1" xmlns="http://www.w3.org/2000/svg" xmlns:xlink="http://www.w3.org/1999/xlink">
    <title>编组 19</title>
    <g id="1.0" stroke="none" stroke-width="1" fill="none" fill-rule="evenodd" opacity="0.6">
        <g id="地图管理" transform="translate(-490.000000, -12.000000)">
            <g id="编组-10" transform="translate(490.000000, 9.000000)">
                <g id="编组-19" transform="translate(0.000000, 3.000000)">
                    <rect id="矩形备份-3" fill="#D8D8D8" opacity="0" x="0" y="0" width="16" height="16"></rect>
                    <path d="M13.7142857,2.28560942 C14.1350741,2.28560942 14.4761905,2.62671015 14.4761905,3.04747923 L14.4761905,3.04747923 L14.4761905,15.2373962 C14.4761905,15.77442 13.9354538,16.1428957 13.4356165,15.9464774 L13.4356165,15.9464774 L8,13.8100331 L2.56438355,15.9464774 C2.08178193,16.1361226 1.56105307,15.7991605 1.52571458,15.2923329 L1.52571458,15.2923329 L1.52380952,15.2373962 L1.52380952,3.04747923 C1.52380952,2.62671015 1.8649259,2.28560942 2.28571429,2.28560942 L2.28571429,2.28560942 Z M12.952381,3.80934904 L3.04761905,3.80934904 L3.04761905,14.1189713 L7.72133074,12.2828039 C7.87805406,12.2212172 8.05009097,12.2135189 8.21064269,12.2597089 L8.21064269,12.2597089 L8.27866926,12.2828039 L12.952381,14.1193522 L12.952381,3.80934904 Z M7.65838626,5.54543483 C7.79812481,5.26230659 8.20187519,5.26230659 8.34161374,5.54543483 L8.34161374,5.54543483 L8.92457143,6.72692947 L10.2286238,6.91636497 C10.5262094,6.95960471 10.6535463,7.30993751 10.4696837,7.53358099 L10.4696837,7.53358099 L10.4397527,7.56612311 L9.496,8.48570592 L9.71897899,9.78433468 C9.76992821,10.0813778 9.47462291,10.3111043 9.20459907,10.2035898 L9.20459907,10.2035898 L9.16623634,10.1859073 L8,9.57289413 L6.83376366,10.1859073 C6.56699007,10.326152 6.25724282,10.1163023 6.27605791,9.82628233 L6.27605791,9.82628233 L6.28102101,9.78433468 L6.50361905,8.48570592 L5.56024732,7.56612311 C5.34491235,7.35623302 5.4478245,6.99796449 5.72803286,6.92509991 L5.72803286,6.92509991 L5.77137622,6.91636497 L7.07504762,6.72692947 Z M8,6.5745555 L7.66985917,7.24367327 C7.61436888,7.35610372 7.5071058,7.43403134 7.38302574,7.4520604 L7.38302574,7.4520604 L6.64457143,7.55927223 L7.17898748,8.07999677 C7.25754951,8.1565723 7.29873807,8.26268154 7.29360842,8.37079663 L7.29360842,8.37079663 L7.2885481,8.41717422 L7.16228571,9.15196106 L7.82272719,8.80526024 C7.9198352,8.75420988 8.03348368,8.74782858 8.1347268,8.78611635 L8.1347268,8.78611635 L8.17727281,8.80526024 L8.83733333,9.15196106 L8.7114519,8.41717422 C8.69290592,8.30904782 8.72195598,8.19899473 8.78965733,8.11454278 L8.78965733,8.11454278 L8.82101252,8.07999677 L9.35504762,7.55927223 L8.61697426,7.4520604 C8.50840421,7.43628497 8.41270966,7.37464971 8.35330827,7.28416777 L8.35330827,7.28416777 L8.33014083,7.24367327 L8,6.5745555 Z M15.2380952,0 C15.6588836,0 16,0.341100731 16,0.761869808 C16,1.16351302 15.6891894,1.49256585 15.2949571,1.52164991 L15.2380952,1.52373962 L0.761904762,1.52373962 C0.341116381,1.52373962 0,1.18263888 0,0.761869808 C0,0.360226599 0.310810587,0.0311737614 0.705042916,0.00208970848 L0.761904762,0 L15.2380952,0 Z" id="形状结合" fill="#FFFFFF" fill-rule="nonzero"></path>
                </g>
            </g>
        </g>
    </g>
</svg>