<?xml version="1.0" encoding="UTF-8"?>
<svg width="16px" height="16px" viewBox="0 0 16 16" version="1.1" xmlns="http://www.w3.org/2000/svg" xmlns:xlink="http://www.w3.org/1999/xlink">
    <title>编组 16</title>
    <g id="1.0" stroke="none" stroke-width="1" fill="none" fill-rule="evenodd" opacity="0.6">
        <g id="地图管理" transform="translate(-603.000000, -12.000000)" fill="#FFFFFF">
            <g id="编组-9" transform="translate(603.000000, 9.000000)">
                <g id="编组-16" transform="translate(0.000000, 3.000000)">
                    <rect id="矩形备份-4" opacity="0" x="0" y="0" width="16" height="16"></rect>
                    <path d="M8,0 C10.5247303,0 12.5714286,1.99910065 12.5714286,4.46511628 C12.5714286,6.93113191 10.5247303,8.93023256 8,8.93023256 L8,8.93023256 C4.42329876,8.93023256 1.52380952,11.7622918 1.52380952,15.255814 C1.52380952,15.6668166 1.18269314,16 0.761904762,16 C0.341116381,16 0,15.6668166 0,15.255814 C0,11.9222206 2.13722071,9.07619315 5.14632906,7.95363838 C4.09938958,7.13566987 3.42857143,5.87691023 3.42857143,4.46511628 C3.42857143,1.99910065 5.47526972,0 8,0 Z M13.7142857,8.55813953 C14.9766509,8.55813953 16,9.55768986 16,10.7906977 L16,10.7906977 L16,13.3953488 C16,14.6283567 14.9766509,15.627907 13.7142857,15.627907 L13.7142857,15.627907 L11.4285714,15.627907 C10.1662063,15.627907 9.14285714,14.6283567 9.14285714,13.3953488 L9.14285714,13.3953488 L9.14285714,10.7906977 C9.14285714,9.55768986 10.1662063,8.55813953 11.4285714,8.55813953 L11.4285714,8.55813953 Z M13.7142857,10.0465116 L11.4285714,10.0465116 C11.007783,10.0465116 10.6666667,10.3796951 10.6666667,10.7906977 L10.6666667,10.7906977 L10.6666667,13.3953488 C10.6666667,13.8063514 11.007783,14.1395349 11.4285714,14.1395349 L11.4285714,14.1395349 L13.7142857,14.1395349 C14.1350741,14.1395349 14.4761905,13.8063514 14.4761905,13.3953488 L14.4761905,13.3953488 L14.4761905,10.7906977 C14.4761905,10.3796951 14.1350741,10.0465116 13.7142857,10.0465116 L13.7142857,10.0465116 Z M12.5714286,10.9767442 C12.9730902,10.9767442 13.3021581,11.2803266 13.3312435,11.6653908 L13.3333333,11.7209302 L13.3333333,12.4651163 C13.3333333,12.8761189 12.992217,13.2093023 12.5714286,13.2093023 C12.1697669,13.2093023 11.840699,12.9057199 11.8116136,12.5206558 L11.8095238,12.4651163 L11.8095238,11.7209302 C11.8095238,11.3099276 12.1506402,10.9767442 12.5714286,10.9767442 Z M8,1.48837209 C6.31684648,1.48837209 4.95238095,2.82110586 4.95238095,4.46511628 C4.95238095,6.1091267 6.31684648,7.44186047 8,7.44186047 C9.68315352,7.44186047 11.047619,6.1091267 11.047619,4.46511628 C11.047619,2.82110586 9.68315352,1.48837209 8,1.48837209 Z" id="形状结合" fill-rule="nonzero"></path>
                </g>
            </g>
        </g>
    </g>
</svg>